<?xml version="1.0" encoding="UTF-8" standalone="no"?>
<svg
   xmlns:dc="http://purl.org/dc/elements/1.1/"
   xmlns:cc="http://creativecommons.org/ns#"
   xmlns:rdf="http://www.w3.org/1999/02/22-rdf-syntax-ns#"
   xmlns:svg="http://www.w3.org/2000/svg"
   xmlns="http://www.w3.org/2000/svg"
   xmlns:sodipodi="http://sodipodi.sourceforge.net/DTD/sodipodi-0.dtd"
   xmlns:inkscape="http://www.inkscape.org/namespaces/inkscape"
   version="1.1"
   id="Layer_1"
   x="0px"
   y="0px"
   width="90px"
   height="90px"
   viewBox="4.5 -9.0 90.0 121.5"
   enable-background="new 0 0 90 90"
   xml:space="preserve"
   inkscape:version="0.48.5 r10040"
   sodipodi:docname="Logo.svg"><metadata
     id="metadata3055"><rdf:RDF><cc:Work
         rdf:about=""><dc:format>image/svg+xml</dc:format><dc:type
           rdf:resource="http://purl.org/dc/dcmitype/StillImage" /><dc:title></dc:title></cc:Work></rdf:RDF></metadata><defs
     id="defs3053" /><sodipodi:namedview
     pagecolor="#ffffff"
     bordercolor="#666666"
     borderopacity="1"
     objecttolerance="10"
     gridtolerance="10"
     guidetolerance="10"
     inkscape:pageopacity="0"
     inkscape:pageshadow="2"
     inkscape:window-width="928"
     inkscape:window-height="689"
     id="namedview3051"
     showgrid="false"
     inkscape:zoom="2.8284271"
     inkscape:cx="39.166652"
     inkscape:cy="40.377343"
     inkscape:window-x="82"
     inkscape:window-y="0"
     inkscape:window-maximized="0"
     inkscape:current-layer="Layer_1" /><g
     id="g3041"><path
       fill="#000000"
       d="M41.628,45.97c-0.963,0.933-3.271,0.737-4.297,0.155c-0.447-0.254-1.007-0.111-1.286,0.311   c-2.143-0.064-4.708-0.387-6.933-0.746c-0.506-0.926-1.068-1.744-1.684-2.438c3.373-1.267,6.176-3.698,7.92-6.805   c-1.08,0.488-2.3,0.705-3.519,0.705c-2.338,0-4.656-0.771-5.906-1.843c-0.233-0.2-0.26-0.55-0.06-0.783   c0.2-0.233,0.55-0.26,0.783-0.06c1.871,1.603,6.916,2.356,9.556,0.193c0.053-0.044-0.061,0.02,0,0   c0.699-1.744,1.087-3.647,1.087-5.641c0-8.396-6.806-15.202-15.202-15.202c-8.396,0-15.202,6.806-15.202,15.202   c0,6.516,4.1,12.072,9.86,14.234c-3.505,3.945-5.229,11.925-5.229,20.713c0,12.468,3.523,12.217,10.57,12.217   c7.047,0,10.57,0.251,10.57-12.217c0-6.596-0.971-12.736-2.937-17.057c2.092,0.317,4.394,0.584,6.352,0.639   c0.078,0.106,0.179,0.199,0.301,0.268c0.781,0.443,1.952,0.736,3.146,0.736c1.28,0,2.586-0.337,3.462-1.185   c0.386-0.374,0.395-0.989,0.022-1.374C42.629,45.606,42.013,45.597,41.628,45.97z M30.704,26.239c1.047,0,1.895,0.849,1.895,1.895   s-0.849,1.895-1.895,1.895c-1.047,0-1.895-0.849-1.895-1.895S29.657,26.239,30.704,26.239z"
       id="path3043" /><path
       fill="#000000"
       d="M36.987,43.14l2.539,2.539l2.539-2.539c0.701-0.701,0.701-1.838,0-2.539c-0.701-0.701-1.838-0.701-2.539,0   c-0.701-0.701-1.838-0.701-2.539,0C36.286,41.303,36.286,42.439,36.987,43.14z"
       id="path3045" /><path
       fill="#000000"
       d="M83.116,29.019c0-8.396-6.806-15.202-15.202-15.202c-8.396,0-15.202,6.806-15.202,15.202   c0,1.422,0.199,2.797,0.565,4.102c3.416,1.352,8.09,0.33,10.079-1.374c0.294-0.252,0.736-0.218,0.988,0.076   c0.141,0.165,0.189,0.376,0.155,0.574c0.69,2.318-1.601,7.474-7.183,7.509c1.49,1.451,3.273,2.602,5.256,3.348   c-0.973,1.096-1.809,2.503-2.509,4.152c-1.932,0.282-4.118,0.336-6.213,0.118c-0.023-0.219-0.115-0.432-0.286-0.598   c-1.693-1.64-4.99-1.367-6.608-0.45c-0.34,0.193-0.517,0.56-0.487,0.926c-0.08,0.324,0.006,0.68,0.264,0.93   c0.876,0.849,2.182,1.185,3.462,1.185c1.194,0,2.366-0.293,3.146-0.736c0.084-0.048,0.155-0.109,0.219-0.175   c0.94,0.104,1.9,0.156,2.854,0.156c1.087,0,2.164-0.066,3.191-0.19c-1.512,4.165-2.261,9.603-2.261,15.393   c0,12.468,3.523,12.217,10.57,12.217s10.57,0.251,10.57-12.217c0-8.789-1.724-16.768-5.229-20.713   C79.015,41.09,83.116,35.534,83.116,29.019z M59.296,30.03c-1.047,0-1.895-0.849-1.895-1.895s0.849-1.895,1.895-1.895   c1.047,0,1.895,0.849,1.895,1.895S60.343,30.03,59.296,30.03z"
       id="path3047" /><path
       fill="#000000"
       d="M53.277,33.123"
       id="path3049" /></g><path
     style="fill:#a00000;fill-opacity:0;stroke:#a00000;stroke-width:0.31578946;stroke-opacity:0"
     d="m 36.376832,38.890574 c -1.369009,-1.559215 -0.978679,-2.280857 1.233694,-2.280857 2.212374,0 2.602703,0.721642 1.233694,2.280857 -0.540832,0.615974 -1.095994,1.119952 -1.233694,1.119952 -0.137699,0 -0.692861,-0.503978 -1.233694,-1.119952 z"
     id="path3825"
     inkscape:connector-curvature="0"
     transform="matrix(1.35,0,0,1.35,-11.25,-9)" /><path
     style="fill:#a00000;fill-opacity:0;stroke:#a00000;stroke-width:0.31578946;stroke-opacity:0"
     d="m 36.376832,38.890574 c -1.369009,-1.559215 -0.978679,-2.280857 1.233694,-2.280857 2.212374,0 2.602703,0.721642 1.233694,2.280857 -0.540832,0.615974 -1.095994,1.119952 -1.233694,1.119952 -0.137699,0 -0.692861,-0.503978 -1.233694,-1.119952 z"
     id="path3827"
     inkscape:connector-curvature="0"
     transform="matrix(1.35,0,0,1.35,-11.25,-9)" /><path
     style="fill:#a00000;fill-opacity:0;stroke:#a00000;stroke-width:0.07894737;stroke-opacity:0"
     d="m 36.564945,39.408723 c -1.148209,-1.175615 -1.289883,-1.428317 -1.131186,-2.017675 0.228739,-0.849469 1.118403,-1.228178 1.879864,-0.800212 l 0.303578,0.17062 0.289179,-0.17062 c 0.736226,-0.434384 1.62831,-0.05546 1.88479,0.800595 0.171194,0.571397 0.01595,0.84543 -1.147827,2.026146 l -1.039605,1.054733 -1.038793,-1.063587 z"
     id="path3829"
     inkscape:connector-curvature="0"
     transform="matrix(1.35,0,0,1.35,-11.25,-9)" /><path
     style="fill:#a00000;fill-opacity:0;stroke:#a00000;stroke-width:0.07894737;stroke-opacity:0"
     d="m 36.564945,39.408723 c -1.148209,-1.175615 -1.289883,-1.428317 -1.131186,-2.017675 0.228739,-0.849469 1.118403,-1.228178 1.879864,-0.800212 l 0.303578,0.17062 0.289179,-0.17062 c 0.736226,-0.434384 1.62831,-0.05546 1.88479,0.800595 0.171194,0.571397 0.01595,0.84543 -1.147827,2.026146 l -1.039605,1.054733 -1.038793,-1.063587 z"
     id="path3831"
     inkscape:connector-curvature="0"
     transform="matrix(1.35,0,0,1.35,-11.25,-9)" /><path
     style="fill:#a00000;fill-opacity:0;stroke:#a00000;stroke-width:0.07894737;stroke-opacity:0"
     d="m 36.564945,39.408723 c -1.148209,-1.175615 -1.289883,-1.428317 -1.131186,-2.017675 0.228739,-0.849469 1.118403,-1.228178 1.879864,-0.800212 l 0.303578,0.17062 0.289179,-0.17062 c 0.736226,-0.434384 1.62831,-0.05546 1.88479,0.800595 0.171194,0.571397 0.01595,0.84543 -1.147827,2.026146 l -1.039605,1.054733 -1.038793,-1.063587 z"
     id="path3833"
     inkscape:connector-curvature="0"
     transform="matrix(1.35,0,0,1.35,-11.25,-9)" /><path
     style="fill:#a22c27;fill-opacity:0;stroke:#a00000;stroke-width:0.07900000000000000;stroke-opacity:0;stroke-miterlimit:4;stroke-dasharray:none"
     d="m 36.564945,39.408723 c -1.148209,-1.175615 -1.289883,-1.428317 -1.131186,-2.017675 0.228739,-0.849469 1.118403,-1.228178 1.879864,-0.800212 l 0.303578,0.17062 0.289179,-0.17062 c 0.736226,-0.434384 1.62831,-0.05546 1.88479,0.800595 0.171194,0.571397 0.01595,0.84543 -1.147827,2.026146 l -1.039605,1.054733 -1.038793,-1.063587 z"
     id="path3835"
     inkscape:connector-curvature="0"
     transform="matrix(1.35,0,0,1.35,-11.25,-9)" /><path
     style="fill:#a22c27;fill-opacity:0;stroke:#a00000;stroke-width:0.00623684;stroke-miterlimit:4;stroke-opacity:0;stroke-dasharray:none"
     d="m 36.564945,39.408723 c -1.148209,-1.175615 -1.289883,-1.428317 -1.131186,-2.017675 0.228739,-0.849469 1.118403,-1.228178 1.879864,-0.800212 l 0.303578,0.17062 0.289179,-0.17062 c 0.736226,-0.434384 1.62831,-0.05546 1.88479,0.800595 0.171194,0.571397 0.01595,0.84543 -1.147827,2.026146 l -1.039605,1.054733 -1.038793,-1.063587 z"
     id="path3837"
     inkscape:connector-curvature="0"
     transform="matrix(1.35,0,0,1.35,-11.25,-9)" /><path
     style="fill:#a22c27;fill-opacity:0;stroke:#a00000;stroke-width:0.00623684;stroke-miterlimit:4;stroke-opacity:0;stroke-dasharray:none"
     d="m 36.564945,39.408723 c -1.148209,-1.175615 -1.289883,-1.428317 -1.131186,-2.017675 0.228739,-0.849469 1.118403,-1.228178 1.879864,-0.800212 l 0.303578,0.17062 0.289179,-0.17062 c 0.736226,-0.434384 1.62831,-0.05546 1.88479,0.800595 0.171194,0.571397 0.01595,0.84543 -1.147827,2.026146 l -1.039605,1.054733 -1.038793,-1.063587 z"
     id="path3839"
     inkscape:connector-curvature="0"
     transform="matrix(1.35,0,0,1.35,-11.25,-9)" /><path
     style="fill:#a22c27;fill-opacity:0;stroke:#a00000;stroke-width:0.00623684;stroke-miterlimit:4;stroke-opacity:0;stroke-dasharray:none"
     d="m 36.564945,39.408723 c -1.148209,-1.175615 -1.289883,-1.428317 -1.131186,-2.017675 0.228739,-0.849469 1.118403,-1.228178 1.879864,-0.800212 l 0.303578,0.17062 0.289179,-0.17062 c 0.736226,-0.434384 1.62831,-0.05546 1.88479,0.800595 0.171194,0.571397 0.01595,0.84543 -1.147827,2.026146 l -1.039605,1.054733 -1.038793,-1.063587 z"
     id="path3841"
     inkscape:connector-curvature="0"
     transform="matrix(1.35,0,0,1.35,-11.25,-9)" /><path
     style="fill:#a22c27;fill-opacity:0;stroke:#a00000;stroke-width:0.00623684;stroke-miterlimit:4;stroke-opacity:0;stroke-dasharray:none"
     d="m 36.564945,39.408723 c -1.148209,-1.175615 -1.289883,-1.428317 -1.131186,-2.017675 0.228739,-0.849469 1.118403,-1.228178 1.879864,-0.800212 l 0.303578,0.17062 0.289179,-0.17062 c 0.736226,-0.434384 1.62831,-0.05546 1.88479,0.800595 0.171194,0.571397 0.01595,0.84543 -1.147827,2.026146 l -1.039605,1.054733 -1.038793,-1.063587 z"
     id="path3843"
     inkscape:connector-curvature="0"
     transform="matrix(1.35,0,0,1.35,-11.25,-9)" /><path
     style="fill:#a22c27;fill-opacity:0;stroke:#a00000;stroke-width:0.00623684;stroke-miterlimit:4;stroke-opacity:0;stroke-dasharray:none"
     d="m 36.564945,39.408723 c -1.148209,-1.175615 -1.289883,-1.428317 -1.131186,-2.017675 0.228739,-0.849469 1.118403,-1.228178 1.879864,-0.800212 l 0.303578,0.17062 0.289179,-0.17062 c 0.736226,-0.434384 1.62831,-0.05546 1.88479,0.800595 0.171194,0.571397 0.01595,0.84543 -1.147827,2.026146 l -1.039605,1.054733 -1.038793,-1.063587 z"
     id="path3845"
     inkscape:connector-curvature="0"
     transform="matrix(1.35,0,0,1.35,-11.25,-9)" /><path
     style="fill:#a22c27;fill-opacity:0;stroke:#a00000;stroke-width:0.00623684;stroke-miterlimit:4;stroke-opacity:0;stroke-dasharray:none"
     d="m 36.564945,39.408723 c -1.148209,-1.175615 -1.289883,-1.428317 -1.131186,-2.017675 0.228739,-0.849469 1.118403,-1.228178 1.879864,-0.800212 l 0.303578,0.17062 0.289179,-0.17062 c 0.736226,-0.434384 1.62831,-0.05546 1.88479,0.800595 0.171194,0.571397 0.01595,0.84543 -1.147827,2.026146 l -1.039605,1.054733 -1.038793,-1.063587 z"
     id="path3847"
     inkscape:connector-curvature="0"
     transform="matrix(1.35,0,0,1.35,-11.25,-9)" /><path
     style="fill:#a22c27;fill-opacity:0;stroke:#a00000;stroke-width:0.00623684;stroke-miterlimit:4;stroke-opacity:0;stroke-dasharray:none"
     d="m 36.564945,39.408723 c -1.148209,-1.175615 -1.289883,-1.428317 -1.131186,-2.017675 0.228739,-0.849469 1.118403,-1.228178 1.879864,-0.800212 l 0.303578,0.17062 0.289179,-0.17062 c 0.736226,-0.434384 1.62831,-0.05546 1.88479,0.800595 0.171194,0.571397 0.01595,0.84543 -1.147827,2.026146 l -1.039605,1.054733 -1.038793,-1.063587 z"
     id="path3849"
     inkscape:connector-curvature="0"
     transform="matrix(1.35,0,0,1.35,-11.25,-9)" /><path
     style="fill:#a22c27;fill-opacity:0;stroke:#a00000;stroke-width:0.00623684;stroke-miterlimit:4;stroke-opacity:0;stroke-dasharray:none"
     d="m 36.564945,39.408723 c -1.148209,-1.175615 -1.289883,-1.428317 -1.131186,-2.017675 0.228739,-0.849469 1.118403,-1.228178 1.879864,-0.800212 l 0.303578,0.17062 0.289179,-0.17062 c 0.736226,-0.434384 1.62831,-0.05546 1.88479,0.800595 0.171194,0.571397 0.01595,0.84543 -1.147827,2.026146 l -1.039605,1.054733 -1.038793,-1.063587 z"
     id="path3851"
     inkscape:connector-curvature="0"
     transform="matrix(1.35,0,0,1.35,-11.25,-9)" /><path
     style="fill:#a22c27;fill-opacity:0;stroke:#a00000;stroke-width:0.00623684;stroke-miterlimit:4;stroke-opacity:0;stroke-dasharray:none"
     d="m 36.564945,39.408723 c -1.148209,-1.175615 -1.289883,-1.428317 -1.131186,-2.017675 0.228739,-0.849469 1.118403,-1.228178 1.879864,-0.800212 l 0.303578,0.17062 0.289179,-0.17062 c 0.736226,-0.434384 1.62831,-0.05546 1.88479,0.800595 0.171194,0.571397 0.01595,0.84543 -1.147827,2.026146 l -1.039605,1.054733 -1.038793,-1.063587 z"
     id="path3853"
     inkscape:connector-curvature="0"
     transform="matrix(1.35,0,0,1.35,-11.25,-9)" /><path
     style="fill:#a22c27;fill-opacity:0;stroke:#a00000;stroke-width:0.00623684;stroke-miterlimit:4;stroke-opacity:0;stroke-dasharray:none"
     d="m 36.564945,39.408723 c -1.148209,-1.175615 -1.289883,-1.428317 -1.131186,-2.017675 0.228739,-0.849469 1.118403,-1.228178 1.879864,-0.800212 l 0.303578,0.17062 0.289179,-0.17062 c 0.736226,-0.434384 1.62831,-0.05546 1.88479,0.800595 0.171194,0.571397 0.01595,0.84543 -1.147827,2.026146 l -1.039605,1.054733 -1.038793,-1.063587 z"
     id="path3855"
     inkscape:connector-curvature="0"
     transform="matrix(1.35,0,0,1.35,-11.25,-9)" /><path
     style="fill:#a22c27;fill-opacity:0;stroke:#a00000;stroke-width:0.00623684;stroke-miterlimit:4;stroke-opacity:0;stroke-dasharray:none"
     d="m 36.564945,39.408723 c -1.148209,-1.175615 -1.289883,-1.428317 -1.131186,-2.017675 0.228739,-0.849469 1.118403,-1.228178 1.879864,-0.800212 l 0.303578,0.17062 0.289179,-0.17062 c 0.736226,-0.434384 1.62831,-0.05546 1.88479,0.800595 0.171194,0.571397 0.01595,0.84543 -1.147827,2.026146 l -1.039605,1.054733 -1.038793,-1.063587 z"
     id="path3857"
     inkscape:connector-curvature="0"
     transform="matrix(1.35,0,0,1.35,-11.25,-9)" /><path
     style="fill:#a22c27;fill-opacity:0;stroke:#a00000;stroke-width:0.00623684;stroke-miterlimit:4;stroke-opacity:0;stroke-dasharray:none"
     d="m -2.2213604,38.999163 0,-32.8815791 29.2105264,0 29.210526,0 0,5.5175301 0,5.517529 -0.296052,0.05424 c -0.870105,0.159415 -2.509537,0.877593 -3.493421,1.530343 -2.632417,1.746457 -4.360499,4.424867 -4.904113,7.601043 -0.140574,0.821329 -0.160042,1.171324 -0.122396,2.200367 0.04091,1.118167 0.187059,2.152769 0.363482,2.573053 0.04794,0.114196 0.211679,0.204189 0.530651,0.291645 2.24717,0.616131 5.148294,0.168672 6.836816,-1.054488 0.660056,-0.478142 0.931436,-0.253945 0.987386,0.815717 0.03476,0.664469 0.01624,0.798383 -0.195289,1.41206 -0.538708,1.562898 -1.742334,2.768488 -3.298506,3.30389 -0.251448,0.08651 -0.779587,0.198639 -1.173642,0.249175 l -0.716464,0.09188 0.471038,0.423544 c 0.25907,0.232949 0.759,0.617951 1.110955,0.85556 0.623766,0.421112 1.98587,1.143224 2.156438,1.143224 0.150344,0 0.09197,0.162412 -0.179662,0.499871 -0.348454,0.432897 -0.968588,1.468018 -1.248616,2.08418 -0.156888,0.34521 -0.276524,0.504495 -0.401091,0.534017 -0.374393,0.08873 -2.270394,0.175818 -3.13804,0.14414 -1.06433,-0.03886 -1.263158,-0.07172 -1.263158,-0.208752 0,-0.322042 -1.0041,-0.926381 -1.799003,-1.082768 -0.691937,-0.136131 -1.969773,-0.05916 -2.657799,0.160099 -0.737097,0.234893 -1.07062,0.559734 -1.066716,1.03895 0.0032,0.391998 0.109203,0.618953 0.391939,0.839096 1.065318,0.829476 3.106236,0.95897 4.540057,0.288062 0.382848,-0.17914 0.442629,-0.183654 1.894737,-0.143046 0.82468,0.02306 1.80139,0.0089 2.170469,-0.03137 0.369079,-0.04032 0.680027,-0.06651 0.690994,-0.05821 0.01097,0.0083 -0.05246,0.225199 -0.140959,0.481995 -0.248865,0.722157 -0.763774,2.889102 -0.93636,3.940585 -0.37983,2.314109 -0.504453,3.962166 -0.507434,6.710526 -0.005,4.564272 0.459034,6.718772 1.719238,7.983216 0.723562,0.725996 1.46255,1.036385 2.882977,1.210905 0.36794,0.04521 0.696558,0.08219 0.730263,0.08219 0.0337,0 0.06128,1.97171 0.06128,4.381579 l 0,4.381579 -29.210526,0 -29.2105264,0 0,-32.881579 0,0 z m 30.1973684,24.03141 c 2.707656,-0.329886 3.838376,-1.637844 4.343853,-5.02474 0.281674,-1.887323 0.28004,-5.927884 -0.0035,-8.644462 -0.290669,-2.784918 -0.883336,-5.378345 -1.689315,-7.392209 -0.09349,-0.233606 -0.155328,-0.439397 -0.137411,-0.457314 0.01792,-0.01792 0.596521,0.0401 1.285788,0.128926 0.689267,0.08882 1.661765,0.18229 2.161108,0.2077 0.825135,0.04199 0.95827,0.07089 1.460526,0.317081 1.59366,0.781164 3.787856,0.612554 4.7667,-0.366291 0.435222,-0.435221 0.299816,-1.07366 -0.267415,-1.260864 -0.237613,-0.07842 -0.318148,-0.06881 -0.572123,0.06826 -0.958134,0.51709 -0.972481,0.521303 -1.756109,0.515634 -0.62028,-0.0045 -0.845584,-0.04263 -1.302632,-0.220545 -0.590814,-0.229982 -0.901255,-0.228192 -1.160803,0.0067 -0.1313,0.118824 -0.253624,0.122378 -1.307812,0.03798 -1.011582,-0.08098 -3.195828,-0.347322 -3.703351,-0.451575 -0.106334,-0.02184 -0.281907,-0.216309 -0.460035,-0.50954 -0.15844,-0.26082 -0.428606,-0.652007 -0.600371,-0.869306 l -0.3123,-0.395089 0.219705,-0.08312 c 0.392755,-0.148594 1.312935,-0.631824 1.838125,-0.965288 1.393096,-0.884531 2.707167,-2.218967 3.543178,-3.598088 0.296131,-0.488512 0.340354,-0.477828 -0.661599,-0.159837 -0.47162,0.149678 -0.732016,0.175519 -1.776316,0.176273 -1.070001,7.89e-4 -1.319713,-0.02485 -1.988301,-0.204031 -1.247535,-0.334334 -2.432751,-0.994443 -2.432751,-1.354924 0,-0.408789 0.334154,-0.464603 0.814723,-0.136083 0.79829,0.545715 1.956081,0.875209 3.29054,0.93645 1.216878,0.05584 2.024477,-0.09552 2.921053,-0.547466 l 0.671053,-0.338268 0.253522,-0.754527 c 0.83527,-2.485909 0.730683,-5.357814 -0.285634,-7.843303 -1.357648,-3.320244 -4.301449,-5.832918 -7.817351,-6.672478 -2.220346,-0.530196 -4.779506,-0.330369 -6.906262,0.539262 -2.999055,1.226313 -5.353752,3.730769 -6.394215,6.800887 -0.786536,2.32085 -0.789763,5.013539 -0.0087,7.29858 0.884199,2.586926 2.745295,4.82233 5.139575,6.173259 0.386827,0.21826 0.871939,0.46396 1.078026,0.545999 0.206087,0.08204 0.374837,0.174184 0.375,0.204765 1.58e-4,0.03058 -0.180252,0.297029 -0.400921,0.592105 -1.687508,2.256519 -2.838931,6.267123 -3.23652,11.273346 -0.124309,1.565235 -0.124528,5.358994 -3.94e-4,6.552632 0.245081,2.356338 0.741055,3.783974 1.621508,4.667426 0.7021,0.70449 1.487849,1.042914 2.806081,1.208586 0.783159,0.09842 5.779282,0.09653 6.592105,-0.0025 l 1.6e-5,-2e-6 z M 39.867026,38.054646 c 0.239691,-0.885704 -0.398132,-1.713378 -1.320366,-1.713378 -0.193293,0 -0.482721,0.06813 -0.643173,0.151396 -0.286404,0.14863 -0.296355,0.148668 -0.544767,0.0021 -0.322283,-0.190152 -0.944875,-0.199419 -1.323602,-0.0197 -0.546049,0.259117 -0.838085,0.938579 -0.671508,1.562349 0.07137,0.267269 0.29308,0.537228 1.163735,1.417012 l 1.075565,1.08684 1.089714,-1.08684 c 0.859958,-0.85769 1.10757,-1.152821 1.174402,-1.399779 l 0,2e-6 z"
     id="path3859"
     inkscape:connector-curvature="0"
     transform="matrix(1.35,0,0,1.35,-11.25,-9)" /><path
     style="fill:#a22c27;fill-opacity:0;stroke:#a00000;stroke-width:0.00623684;stroke-miterlimit:4;stroke-opacity:0;stroke-dasharray:none"
     d="m 36.564945,39.408723 c -1.148209,-1.175615 -1.289883,-1.428317 -1.131186,-2.017675 0.228739,-0.849469 1.118403,-1.228178 1.879864,-0.800212 l 0.303578,0.17062 0.289179,-0.17062 c 0.736226,-0.434384 1.62831,-0.05546 1.88479,0.800595 0.171194,0.571397 0.01595,0.84543 -1.147827,2.026146 l -1.039605,1.054733 -1.038793,-1.063587 z"
     id="path3861"
     inkscape:connector-curvature="0"
     transform="matrix(1.35,0,0,1.35,-11.25,-9)" /><path
     style="fill:#a22c27;fill-opacity:0;stroke:#a00000;stroke-width:0.00623684;stroke-miterlimit:4;stroke-opacity:0;stroke-dasharray:none"
     d="m 36.564945,39.408723 c -1.148209,-1.175615 -1.289883,-1.428317 -1.131186,-2.017675 0.228739,-0.849469 1.118403,-1.228178 1.879864,-0.800212 l 0.303578,0.17062 0.289179,-0.17062 c 0.736226,-0.434384 1.62831,-0.05546 1.88479,0.800595 0.171194,0.571397 0.01595,0.84543 -1.147827,2.026146 l -1.039605,1.054733 -1.038793,-1.063587 z"
     id="path3863"
     inkscape:connector-curvature="0"
     transform="matrix(1.35,0,0,1.35,-11.25,-9)" /><path
     style="fill:#a22c27;fill-opacity:0;stroke:#a00000;stroke-width:0.00623684;stroke-miterlimit:4;stroke-opacity:0;stroke-dasharray:none"
     d="m 36.564945,39.408723 c -1.148209,-1.175615 -1.289883,-1.428317 -1.131186,-2.017675 0.228739,-0.849469 1.118403,-1.228178 1.879864,-0.800212 l 0.303578,0.17062 0.289179,-0.17062 c 0.736226,-0.434384 1.62831,-0.05546 1.88479,0.800595 0.171194,0.571397 0.01595,0.84543 -1.147827,2.026146 l -1.039605,1.054733 -1.038793,-1.063587 z"
     id="path3865"
     inkscape:connector-curvature="0"
     transform="matrix(1.35,0,0,1.35,-11.25,-9)" /><path
     style="fill:#a22c27;fill-opacity:0;stroke:#a00000;stroke-width:0.00623684;stroke-miterlimit:4;stroke-opacity:0;stroke-dasharray:none"
     d="m 36.564945,39.408723 c -1.148209,-1.175615 -1.289883,-1.428317 -1.131186,-2.017675 0.228739,-0.849469 1.118403,-1.228178 1.879864,-0.800212 l 0.303578,0.17062 0.289179,-0.17062 c 0.736226,-0.434384 1.62831,-0.05546 1.88479,0.800595 0.171194,0.571397 0.01595,0.84543 -1.147827,2.026146 l -1.039605,1.054733 -1.038793,-1.063587 z"
     id="path3867"
     inkscape:connector-curvature="0"
     transform="matrix(1.35,0,0,1.35,-11.25,-9)" /><path
     style="fill:#a22c27;fill-opacity:0;stroke:#a00000;stroke-width:0.00623684;stroke-miterlimit:4;stroke-opacity:0;stroke-dasharray:none"
     d="m 36.564945,39.408723 c -1.148209,-1.175615 -1.289883,-1.428317 -1.131186,-2.017675 0.228739,-0.849469 1.118403,-1.228178 1.879864,-0.800212 l 0.303578,0.17062 0.289179,-0.17062 c 0.736226,-0.434384 1.62831,-0.05546 1.88479,0.800595 0.171194,0.571397 0.01595,0.84543 -1.147827,2.026146 l -1.039605,1.054733 -1.038793,-1.063587 z"
     id="path3869"
     inkscape:connector-curvature="0"
     transform="matrix(1.35,0,0,1.35,-11.25,-9)" /><path
     style="fill:#a22c27;fill-opacity:0;stroke:#a00000;stroke-width:0.00623684;stroke-miterlimit:4;stroke-opacity:0;stroke-dasharray:none"
     d="m 36.564945,39.408723 c -1.148209,-1.175615 -1.289883,-1.428317 -1.131186,-2.017675 0.228739,-0.849469 1.118403,-1.228178 1.879864,-0.800212 l 0.303578,0.17062 0.289179,-0.17062 c 0.736226,-0.434384 1.62831,-0.05546 1.88479,0.800595 0.171194,0.571397 0.01595,0.84543 -1.147827,2.026146 l -1.039605,1.054733 -1.038793,-1.063587 z"
     id="path3871"
     inkscape:connector-curvature="0"
     transform="matrix(1.35,0,0,1.35,-11.25,-9)" /><path
     style="fill:#a22c27;fill-opacity:0;stroke:#a00000;stroke-width:0.00623684;stroke-miterlimit:4;stroke-opacity:0;stroke-dasharray:none"
     d="m 36.564945,39.408723 c -1.148209,-1.175615 -1.289883,-1.428317 -1.131186,-2.017675 0.228739,-0.849469 1.118403,-1.228178 1.879864,-0.800212 l 0.303578,0.17062 0.289179,-0.17062 c 0.736226,-0.434384 1.62831,-0.05546 1.88479,0.800595 0.171194,0.571397 0.01595,0.84543 -1.147827,2.026146 l -1.039605,1.054733 -1.038793,-1.063587 z"
     id="path3873"
     inkscape:connector-curvature="0"
     transform="matrix(1.35,0,0,1.35,-11.25,-9)" /><path
     style="fill:#a22c27;fill-opacity:0;stroke:#a00000;stroke-width:0.006;stroke-miterlimit:4;stroke-opacity:0;stroke-dasharray:none"
     d="m 36.564945,39.408723 c -1.148209,-1.175615 -1.289883,-1.428317 -1.131186,-2.017675 0.228739,-0.849469 1.118403,-1.228178 1.879864,-0.800212 l 0.303578,0.17062 0.289179,-0.17062 c 0.736226,-0.434384 1.62831,-0.05546 1.88479,0.800595 0.171194,0.571397 0.01595,0.84543 -1.147827,2.026146 l -1.039605,1.054733 -1.038793,-1.063587 z"
     id="path3875"
     inkscape:connector-curvature="0"
     transform="matrix(1.35,0,0,1.35,-11.25,-9)" /><path
     style="fill:#a22c27;fill-opacity:0;stroke:#a00000;stroke-width:0.00047368;stroke-miterlimit:4;stroke-opacity:0;stroke-dasharray:none"
     d="m 36.564945,39.408723 c -1.148209,-1.175615 -1.289883,-1.428317 -1.131186,-2.017675 0.228739,-0.849469 1.118403,-1.228178 1.879864,-0.800212 l 0.303578,0.17062 0.289179,-0.17062 c 0.736226,-0.434384 1.62831,-0.05546 1.88479,0.800595 0.171194,0.571397 0.01595,0.84543 -1.147827,2.026146 l -1.039605,1.054733 -1.038793,-1.063587 z"
     id="path3877"
     inkscape:connector-curvature="0"
     transform="matrix(1.35,0,0,1.35,-11.25,-9)" /><path
     style="fill:#a22c27;fill-opacity:0;stroke:#a00000;stroke-width:0.00047368;stroke-miterlimit:4;stroke-opacity:0;stroke-dasharray:none"
     d="m 36.564945,39.408723 c -1.148209,-1.175615 -1.289883,-1.428317 -1.131186,-2.017675 0.228739,-0.849469 1.118403,-1.228178 1.879864,-0.800212 l 0.303578,0.17062 0.289179,-0.17062 c 0.736226,-0.434384 1.62831,-0.05546 1.88479,0.800595 0.171194,0.571397 0.01595,0.84543 -1.147827,2.026146 l -1.039605,1.054733 -1.038793,-1.063587 z"
     id="path3879"
     inkscape:connector-curvature="0"
     transform="matrix(1.35,0,0,1.35,-11.25,-9)" /><path
     style="fill:#a22c27;fill-opacity:0;stroke:#a00000;stroke-width:0.00047368;stroke-miterlimit:4;stroke-opacity:0;stroke-dasharray:none"
     d="m 36.564945,39.408723 c -1.148209,-1.175615 -1.289883,-1.428317 -1.131186,-2.017675 0.228739,-0.849469 1.118403,-1.228178 1.879864,-0.800212 l 0.303578,0.17062 0.289179,-0.17062 c 0.736226,-0.434384 1.62831,-0.05546 1.88479,0.800595 0.171194,0.571397 0.01595,0.84543 -1.147827,2.026146 l -1.039605,1.054733 -1.038793,-1.063587 z"
     id="path3881"
     inkscape:connector-curvature="0"
     transform="matrix(1.35,0,0,1.35,-11.25,-9)" /><path
     style="fill:#a22c27;fill-opacity:0;stroke:#a00000;stroke-width:0.006;stroke-miterlimit:4;stroke-opacity:0;stroke-dasharray:none"
     id="path3883"
     d="m 37.84418,36.524226 c 0.02079,0.01273 0.04467,0.02144 0.06237,0.0382 0.143668,0.136011 0.248829,0.330845 0.35488,0.494216 0.204458,0.314964 0.130368,0.198212 0.330257,0.532564 0.216317,0.364656 0.426575,0.73364 0.660007,1.08773 0.239149,0.362842 0.05513,0.05791 -1.009181,0.605813 -9.11e-4,4.7e-4 -0.04774,-0.03648 -0.06956,-0.04644 -0.02601,-0.01188 -0.08124,-0.02259 -0.106631,-0.02832 -0.161174,-0.06306 -0.318739,-0.137705 -0.471494,-0.219338 -0.15056,-0.0792 -0.319495,-0.101767 -0.480638,-0.150443 -0.149726,-0.06158 -0.179006,-0.177359 -0.201575,-0.325121 0,0 1.022872,-0.536861 1.022872,-0.536861 l 0,0 c 0.0092,0.106297 0.01886,0.177367 0.129637,0.214635 0.162988,0.05411 0.335701,0.07907 0.484768,0.17086 0.151101,0.07436 0.303175,0.151678 0.467025,0.193819 0.01256,0.004 0.244508,0.08835 0.217588,0.106543 -1.005524,0.679682 -1.050962,0.988084 -0.980547,0.579273 -0.120444,-0.404634 -0.354896,-0.764934 -0.557127,-1.131679 -0.178568,-0.277011 -0.156059,-0.255779 -0.353413,-0.509894 -0.09945,-0.128048 -0.229187,-0.326724 -0.393115,-0.387584 -0.01676,-0.0062 -0.03574,2.83e-4 -0.05362,4.24e-4 0,0 0.947488,-0.68839 0.947488,-0.68839 z"
     inkscape:connector-curvature="0"
     transform="matrix(1.35,0,0,1.35,-11.25,-9)" /><path
     style="fill:#a22c27;fill-opacity:0;stroke:#a000a0;stroke-width:0.00047368000000000;stroke-miterlimit:4;stroke-opacity:0;stroke-dasharray:none"
     d="m 36.564945,39.408723 c -1.148209,-1.175615 -1.289883,-1.428317 -1.131186,-2.017675 0.228739,-0.849469 1.118403,-1.228178 1.879864,-0.800212 l 0.303578,0.17062 0.289179,-0.17062 c 0.736226,-0.434384 1.62831,-0.05546 1.88479,0.800595 0.171194,0.571397 0.01595,0.84543 -1.147827,2.026146 l -1.039605,1.054733 -1.038793,-1.063587 z"
     id="path3885"
     inkscape:connector-curvature="0"
     transform="matrix(1.35,0,0,1.35,-11.25,-9)" /><path
     style="fill:#a22c27;fill-opacity:0;stroke:#a000a0;stroke-width:0.00047368;stroke-miterlimit:4;stroke-opacity:0;stroke-dasharray:none"
     d="m 36.564945,39.408723 c -1.148209,-1.175615 -1.289883,-1.428317 -1.131186,-2.017675 0.228739,-0.849469 1.118403,-1.228178 1.879864,-0.800212 l 0.303578,0.17062 0.289179,-0.17062 c 0.736226,-0.434384 1.62831,-0.05546 1.88479,0.800595 0.171194,0.571397 0.01595,0.84543 -1.147827,2.026146 l -1.039605,1.054733 -1.038793,-1.063587 z"
     id="path3887"
     inkscape:connector-curvature="0"
     transform="matrix(1.35,0,0,1.35,-11.25,-9)" /><path
     style="fill:#a22c27;fill-opacity:0;stroke:#a000a0;stroke-width:0.00047368;stroke-miterlimit:4;stroke-opacity:0;stroke-dasharray:none"
     d="m 36.564945,39.408723 c -1.148209,-1.175615 -1.289883,-1.428317 -1.131186,-2.017675 0.228739,-0.849469 1.118403,-1.228178 1.879864,-0.800212 l 0.303578,0.17062 0.289179,-0.17062 c 0.736226,-0.434384 1.62831,-0.05546 1.88479,0.800595 0.171194,0.571397 0.01595,0.84543 -1.147827,2.026146 l -1.039605,1.054733 -1.038793,-1.063587 z"
     id="path3889"
     inkscape:connector-curvature="0"
     transform="matrix(1.35,0,0,1.35,-11.25,-9)" /><path
     style="fill:#a22c27;fill-opacity:1;stroke:#a000a0;stroke-width:0.00047368000000000;stroke-miterlimit:4;stroke-opacity:0;stroke-dasharray:none"
     d="m 36.564945,39.408723 c -1.148209,-1.175615 -1.289883,-1.428317 -1.131186,-2.017675 0.228739,-0.849469 1.118403,-1.228178 1.879864,-0.800212 l 0.303578,0.17062 0.289179,-0.17062 c 0.736226,-0.434384 1.62831,-0.05546 1.88479,0.800595 0.171194,0.571397 0.01595,0.84543 -1.147827,2.026146 l -1.039605,1.054733 -1.038793,-1.063587 z"
     id="path3891"
     inkscape:connector-curvature="0"
     transform="matrix(1.35,0,0,1.35,-11.25,-9)" /><path
     style="fill:#e8c382;fill-opacity:0;stroke:#a000a0;stroke-width:0.00075000000000000;stroke-miterlimit:4;stroke-opacity:0;stroke-dasharray:none"
     d="m 54.963181,62.869571 c -1.999944,-0.349926 -3.140713,-1.54112 -3.649321,-3.81063 -0.291471,-1.300604 -0.383147,-2.529877 -0.381669,-5.117785 0.0025,-4.357977 0.397151,-7.303699 1.432854,-10.694709 l 0.174004,-0.569708 -2.330536,0.01205 c -1.528185,0.0079 -2.452351,0.06443 -2.684365,0.164197 -0.736545,0.316715 -1.501009,0.433553 -2.394548,0.365975 -0.955103,-0.07223 -1.231281,-0.169924 -1.907873,-0.674851 -0.798549,-0.595941 -0.400791,-1.39826 0.859496,-1.733695 1.500928,-0.399483 3.018626,-0.117975 3.850874,0.714272 l 0.478968,0.478969 1.49637,0 c 0.823003,0 1.837348,-0.03564 2.254101,-0.0792 0.755138,-0.07893 0.758433,-0.08104 0.962895,-0.616411 0.11284,-0.295467 0.511362,-0.994677 0.885605,-1.553801 0.374242,-0.559124 0.680441,-1.041823 0.680441,-1.072665 0,-0.03084 -0.302452,-0.189835 -0.672116,-0.353318 -0.82371,-0.364283 -1.873289,-1.027607 -2.508571,-1.585392 l -0.475765,-0.417728 0.815013,-0.15042 c 1.167386,-0.215456 2.105389,-0.719538 2.91146,-1.56462 0.950954,-0.996975 1.452038,-2.115287 1.452038,-3.240635 0,-0.462566 -0.06319,-0.959105 -0.140428,-1.10342 -0.178958,-0.334387 -0.626771,-0.338018 -1.045713,-0.0085 -0.464381,0.365282 -1.521631,0.827059 -2.460918,1.074859 -1.108783,0.292516 -3.216545,0.294199 -4.077422,0.0033 -0.638085,-0.215649 -0.64034,-0.218319 -0.785906,-0.930397 -0.08029,-0.39277 -0.177882,-1.248503 -0.216868,-1.901628 -0.216312,-3.623849 1.81831,-7.562767 4.99321,-9.666585 2.907592,-1.926688 6.70322,-2.36492 10.0286,-1.157872 2.66348,0.966791 5.126023,3.259278 6.312955,5.876998 1.118046,2.465798 1.295597,5.471629 0.472111,7.992532 -0.95726,2.930416 -3.163273,5.435972 -5.923225,6.72751 -0.4419,0.20679 -0.803455,0.391356 -0.803455,0.410147 0,0.01879 0.261606,0.421301 0.581346,0.894468 1.862721,2.756537 2.870281,6.661723 3.179983,12.325242 0.214445,3.921553 -0.07824,6.913758 -0.842968,8.617789 -0.41601,0.926992 -1.265647,1.728554 -2.237184,2.110595 -0.707767,0.278317 -0.909662,0.293862 -4.181177,0.321924 -1.890625,0.01622 -3.736659,-0.02286 -4.102296,-0.08683 l 0,0 z M 53.138128,28.67301 c 0.551437,-0.361315 0.717354,-1.288949 0.343684,-1.921522 -0.537727,-0.9103 -1.919943,-0.9103 -2.45767,0 -0.799396,1.353269 0.784291,2.792772 2.113986,1.921522 z"
     id="path3895"
     inkscape:connector-curvature="0"
     transform="matrix(1.35,0,0,1.35,-11.25,-9)" /><path
     style="fill:#e8c382;fill-opacity:0;stroke:#a000a0;stroke-width:0.00075;stroke-miterlimit:4;stroke-opacity:0;stroke-dasharray:none"
     d="m 54.939764,62.877261 c -0.337266,-0.05965 -0.973208,-0.285674 -1.413204,-0.502282 -0.98351,-0.484182 -1.51849,-1.167118 -1.9555,-2.496323 -0.516435,-1.570781 -0.637685,-2.699836 -0.630921,-5.875 0.0096,-4.524422 0.382977,-7.295692 1.491159,-11.068755 0.07415,-0.252465 0.04048,-0.255929 -2.276528,-0.23413 -2.049148,0.01928 -2.440265,0.05575 -3.039293,0.283425 -1.274022,0.484219 -3.158515,0.271425 -3.929796,-0.443747 -0.265477,-0.246164 -0.32612,-0.403392 -0.295819,-0.766967 0.0342,-0.410401 0.102244,-0.489391 0.663115,-0.769826 0.543306,-0.271652 0.788388,-0.312141 1.875,-0.309755 1.397917,0.0031 1.953548,0.200484 2.594714,0.921896 l 0.344715,0.387859 1.592785,-0.0011 c 0.876032,-6.25e-4 1.890839,-0.03688 2.255126,-0.08063 l 0.662339,-0.07955 0.451098,-0.9123 c 0.248103,-0.501765 0.670785,-1.202558 0.939293,-1.557318 0.268507,-0.35476 0.470586,-0.660722 0.449063,-0.679914 -0.02152,-0.01915 -0.461008,-0.24399 -0.976633,-0.499596 -1.20445,-0.597073 -2.898136,-1.863008 -2.554532,-1.90937 0.837441,-0.112998 1.697113,-0.350503 2.21527,-0.612022 1.924166,-0.971143 3.142512,-3.245678 2.760813,-5.154172 -0.123021,-0.615101 -0.501383,-0.624896 -1.474203,-0.03816 -1.117731,0.674136 -2.566819,1.055996 -4.072348,1.073137 -1.31389,0.01496 -2.585659,-0.235542 -2.738604,-0.539425 -0.282738,-0.561764 -0.416074,-1.838919 -0.349884,-3.351334 0.07925,-1.810873 0.276066,-2.64947 0.971316,-4.138661 1.391291,-2.980076 3.729424,-5.016349 6.992172,-6.089464 0.977214,-0.321405 1.223039,-0.350184 3.0625,-0.358526 1.734062,-0.0079 2.132279,0.02923 2.99481,0.278947 4.662611,1.349916 7.829809,5.242602 8.257902,10.149483 0.166409,1.907403 -0.445762,4.442656 -1.513021,6.266049 -1.090364,1.862864 -3.206846,3.780047 -5.051817,4.576112 l -0.7377,0.318302 0.558793,0.783078 c 1.670159,2.340519 2.788393,6.201052 3.188802,11.008865 0.16762,2.012658 0.08939,6.752695 -0.129729,7.860094 -0.384878,1.945141 -0.942328,3.079074 -1.854806,3.77293 -0.986947,0.750483 -1.450749,0.826384 -5.275734,0.863378 -1.890625,0.01828 -3.713446,-0.01556 -4.050713,-0.0752 z M 53.094668,28.672968 c 0.38511,-0.24921 0.680976,-0.974638 0.581754,-1.426391 -0.373668,-1.701298 -2.845036,-1.45901 -2.845036,0.278923 0,1.162592 1.25593,1.79934 2.263282,1.147468 z"
     id="path3897"
     inkscape:connector-curvature="0"
     transform="matrix(1.35,0,0,1.35,-11.25,-9)" /><path
     style="fill:#e8c382;fill-opacity:0;stroke:#a000a0;stroke-width:0.00075;stroke-miterlimit:4;stroke-opacity:0;stroke-dasharray:none"
     d="m 54.939764,62.877261 c -0.337266,-0.05965 -0.973208,-0.285674 -1.413204,-0.502282 -0.98351,-0.484182 -1.51849,-1.167118 -1.9555,-2.496323 -0.516435,-1.570781 -0.637685,-2.699836 -0.630921,-5.875 0.0096,-4.524422 0.382977,-7.295692 1.491159,-11.068755 0.07415,-0.252465 0.04048,-0.255929 -2.276528,-0.23413 -2.049148,0.01928 -2.440265,0.05575 -3.039293,0.283425 -1.274022,0.484219 -3.158515,0.271425 -3.929796,-0.443747 -0.265477,-0.246164 -0.32612,-0.403392 -0.295819,-0.766967 0.0342,-0.410401 0.102244,-0.489391 0.663115,-0.769826 0.543306,-0.271652 0.788388,-0.312141 1.875,-0.309755 1.397917,0.0031 1.953548,0.200484 2.594714,0.921896 l 0.344715,0.387859 1.592785,-0.0011 c 0.876032,-6.25e-4 1.890839,-0.03688 2.255126,-0.08063 l 0.662339,-0.07955 0.451098,-0.9123 c 0.248103,-0.501765 0.670785,-1.202558 0.939293,-1.557318 0.268507,-0.35476 0.470586,-0.660722 0.449063,-0.679914 -0.02152,-0.01915 -0.461008,-0.24399 -0.976633,-0.499596 -1.20445,-0.597073 -2.898136,-1.863008 -2.554532,-1.90937 0.837441,-0.112998 1.697113,-0.350503 2.21527,-0.612022 1.924166,-0.971143 3.142512,-3.245678 2.760813,-5.154172 -0.123021,-0.615101 -0.501383,-0.624896 -1.474203,-0.03816 -1.117731,0.674136 -2.566819,1.055996 -4.072348,1.073137 -1.31389,0.01496 -2.585659,-0.235542 -2.738604,-0.539425 -0.282738,-0.561764 -0.416074,-1.838919 -0.349884,-3.351334 0.07925,-1.810873 0.276066,-2.64947 0.971316,-4.138661 1.391291,-2.980076 3.729424,-5.016349 6.992172,-6.089464 0.977214,-0.321405 1.223039,-0.350184 3.0625,-0.358526 1.734062,-0.0079 2.132279,0.02923 2.99481,0.278947 4.662611,1.349916 7.829809,5.242602 8.257902,10.149483 0.166409,1.907403 -0.445762,4.442656 -1.513021,6.266049 -1.090364,1.862864 -3.206846,3.780047 -5.051817,4.576112 l -0.7377,0.318302 0.558793,0.783078 c 1.670159,2.340519 2.788393,6.201052 3.188802,11.008865 0.16762,2.012658 0.08939,6.752695 -0.129729,7.860094 -0.384878,1.945141 -0.942328,3.079074 -1.854806,3.77293 -0.986947,0.750483 -1.450749,0.826384 -5.275734,0.863378 -1.890625,0.01828 -3.713446,-0.01556 -4.050713,-0.0752 z M 53.094668,28.672968 c 0.38511,-0.24921 0.680976,-0.974638 0.581754,-1.426391 -0.373668,-1.701298 -2.845036,-1.45901 -2.845036,0.278923 0,1.162592 1.25593,1.79934 2.263282,1.147468 z"
     id="path3899"
     inkscape:connector-curvature="0"
     transform="matrix(1.35,0,0,1.35,-11.25,-9)" /><path
     style="fill:#e8c382;fill-opacity:0;stroke:#a000a0;stroke-width:0.00075;stroke-miterlimit:4;stroke-opacity:0;stroke-dasharray:none"
     d="m 54.939764,62.877261 c -0.337266,-0.05965 -0.973208,-0.285674 -1.413204,-0.502282 -0.98351,-0.484182 -1.51849,-1.167118 -1.9555,-2.496323 -0.516435,-1.570781 -0.637685,-2.699836 -0.630921,-5.875 0.0096,-4.524422 0.382977,-7.295692 1.491159,-11.068755 0.07415,-0.252465 0.04048,-0.255929 -2.276528,-0.23413 -2.049148,0.01928 -2.440265,0.05575 -3.039293,0.283425 -1.274022,0.484219 -3.158515,0.271425 -3.929796,-0.443747 -0.265477,-0.246164 -0.32612,-0.403392 -0.295819,-0.766967 0.0342,-0.410401 0.102244,-0.489391 0.663115,-0.769826 0.543306,-0.271652 0.788388,-0.312141 1.875,-0.309755 1.397917,0.0031 1.953548,0.200484 2.594714,0.921896 l 0.344715,0.387859 1.592785,-0.0011 c 0.876032,-6.25e-4 1.890839,-0.03688 2.255126,-0.08063 l 0.662339,-0.07955 0.451098,-0.9123 c 0.248103,-0.501765 0.670785,-1.202558 0.939293,-1.557318 0.268507,-0.35476 0.470586,-0.660722 0.449063,-0.679914 -0.02152,-0.01915 -0.461008,-0.24399 -0.976633,-0.499596 -1.20445,-0.597073 -2.898136,-1.863008 -2.554532,-1.90937 0.837441,-0.112998 1.697113,-0.350503 2.21527,-0.612022 1.924166,-0.971143 3.142512,-3.245678 2.760813,-5.154172 -0.123021,-0.615101 -0.501383,-0.624896 -1.474203,-0.03816 -1.117731,0.674136 -2.566819,1.055996 -4.072348,1.073137 -1.31389,0.01496 -2.585659,-0.235542 -2.738604,-0.539425 -0.282738,-0.561764 -0.416074,-1.838919 -0.349884,-3.351334 0.07925,-1.810873 0.276066,-2.64947 0.971316,-4.138661 1.391291,-2.980076 3.729424,-5.016349 6.992172,-6.089464 0.977214,-0.321405 1.223039,-0.350184 3.0625,-0.358526 1.734062,-0.0079 2.132279,0.02923 2.99481,0.278947 4.662611,1.349916 7.829809,5.242602 8.257902,10.149483 0.166409,1.907403 -0.445762,4.442656 -1.513021,6.266049 -1.090364,1.862864 -3.206846,3.780047 -5.051817,4.576112 l -0.7377,0.318302 0.558793,0.783078 c 1.670159,2.340519 2.788393,6.201052 3.188802,11.008865 0.16762,2.012658 0.08939,6.752695 -0.129729,7.860094 -0.384878,1.945141 -0.942328,3.079074 -1.854806,3.77293 -0.986947,0.750483 -1.450749,0.826384 -5.275734,0.863378 -1.890625,0.01828 -3.713446,-0.01556 -4.050713,-0.0752 z M 53.094668,28.672968 c 0.38511,-0.24921 0.680976,-0.974638 0.581754,-1.426391 -0.373668,-1.701298 -2.845036,-1.45901 -2.845036,0.278923 0,1.162592 1.25593,1.79934 2.263282,1.147468 z"
     id="path3901"
     inkscape:connector-curvature="0"
     transform="matrix(1.35,0,0,1.35,-11.25,-9)" /><path
     style="fill:#e8c382;fill-opacity:0;stroke:#a000a0;stroke-width:0.00075000000000000;stroke-miterlimit:4;stroke-opacity:0;stroke-dasharray:none;opacity:1"
     d="m 54.939764,62.877261 c -0.337266,-0.05965 -0.973208,-0.285674 -1.413204,-0.502282 -0.98351,-0.484182 -1.51849,-1.167118 -1.9555,-2.496323 -0.516435,-1.570781 -0.637685,-2.699836 -0.630921,-5.875 0.0096,-4.524422 0.382977,-7.295692 1.491159,-11.068755 0.07415,-0.252465 0.04048,-0.255929 -2.276528,-0.23413 -2.049148,0.01928 -2.440265,0.05575 -3.039293,0.283425 -1.274022,0.484219 -3.158515,0.271425 -3.929796,-0.443747 -0.265477,-0.246164 -0.32612,-0.403392 -0.295819,-0.766967 0.0342,-0.410401 0.102244,-0.489391 0.663115,-0.769826 0.543306,-0.271652 0.788388,-0.312141 1.875,-0.309755 1.397917,0.0031 1.953548,0.200484 2.594714,0.921896 l 0.344715,0.387859 1.592785,-0.0011 c 0.876032,-6.25e-4 1.890839,-0.03688 2.255126,-0.08063 l 0.662339,-0.07955 0.451098,-0.9123 c 0.248103,-0.501765 0.670785,-1.202558 0.939293,-1.557318 0.268507,-0.35476 0.470586,-0.660722 0.449063,-0.679914 -0.02152,-0.01915 -0.461008,-0.24399 -0.976633,-0.499596 -1.20445,-0.597073 -2.898136,-1.863008 -2.554532,-1.90937 0.837441,-0.112998 1.697113,-0.350503 2.21527,-0.612022 1.924166,-0.971143 3.142512,-3.245678 2.760813,-5.154172 -0.123021,-0.615101 -0.501383,-0.624896 -1.474203,-0.03816 -1.117731,0.674136 -2.566819,1.055996 -4.072348,1.073137 -1.31389,0.01496 -2.585659,-0.235542 -2.738604,-0.539425 -0.282738,-0.561764 -0.416074,-1.838919 -0.349884,-3.351334 0.07925,-1.810873 0.276066,-2.64947 0.971316,-4.138661 1.391291,-2.980076 3.729424,-5.016349 6.992172,-6.089464 0.977214,-0.321405 1.223039,-0.350184 3.0625,-0.358526 1.734062,-0.0079 2.132279,0.02923 2.99481,0.278947 4.662611,1.349916 7.829809,5.242602 8.257902,10.149483 0.166409,1.907403 -0.445762,4.442656 -1.513021,6.266049 -1.090364,1.862864 -3.206846,3.780047 -5.051817,4.576112 l -0.7377,0.318302 0.558793,0.783078 c 1.670159,2.340519 2.788393,6.201052 3.188802,11.008865 0.16762,2.012658 0.08939,6.752695 -0.129729,7.860094 -0.384878,1.945141 -0.942328,3.079074 -1.854806,3.77293 -0.986947,0.750483 -1.450749,0.826384 -5.275734,0.863378 -1.890625,0.01828 -3.713446,-0.01556 -4.050713,-0.0752 z M 53.094668,28.672968 c 0.38511,-0.24921 0.680976,-0.974638 0.581754,-1.426391 -0.373668,-1.701298 -2.845036,-1.45901 -2.845036,0.278923 0,1.162592 1.25593,1.79934 2.263282,1.147468 z"
     id="path3903"
     inkscape:connector-curvature="0"
     transform="matrix(1.35,0,0,1.35,-11.25,-9)" /><path
     style="fill:#e8c382;fill-opacity:0;stroke:#a000a0;stroke-width:0.00075;stroke-miterlimit:4;stroke-opacity:0;stroke-dasharray:none"
     d="m 54.939764,62.877261 c -0.337266,-0.05965 -0.973208,-0.285674 -1.413204,-0.502282 -0.98351,-0.484182 -1.51849,-1.167118 -1.9555,-2.496323 -0.516435,-1.570781 -0.637685,-2.699836 -0.630921,-5.875 0.0096,-4.524422 0.382977,-7.295692 1.491159,-11.068755 0.07415,-0.252465 0.04048,-0.255929 -2.276528,-0.23413 -2.049148,0.01928 -2.440265,0.05575 -3.039293,0.283425 -1.274022,0.484219 -3.158515,0.271425 -3.929796,-0.443747 -0.265477,-0.246164 -0.32612,-0.403392 -0.295819,-0.766967 0.0342,-0.410401 0.102244,-0.489391 0.663115,-0.769826 0.543306,-0.271652 0.788388,-0.312141 1.875,-0.309755 1.397917,0.0031 1.953548,0.200484 2.594714,0.921896 l 0.344715,0.387859 1.592785,-0.0011 c 0.876032,-6.25e-4 1.890839,-0.03688 2.255126,-0.08063 l 0.662339,-0.07955 0.451098,-0.9123 c 0.248103,-0.501765 0.670785,-1.202558 0.939293,-1.557318 0.268507,-0.35476 0.470586,-0.660722 0.449063,-0.679914 -0.02152,-0.01915 -0.461008,-0.24399 -0.976633,-0.499596 -1.20445,-0.597073 -2.898136,-1.863008 -2.554532,-1.90937 0.837441,-0.112998 1.697113,-0.350503 2.21527,-0.612022 1.924166,-0.971143 3.142512,-3.245678 2.760813,-5.154172 -0.123021,-0.615101 -0.501383,-0.624896 -1.474203,-0.03816 -1.117731,0.674136 -2.566819,1.055996 -4.072348,1.073137 -1.31389,0.01496 -2.585659,-0.235542 -2.738604,-0.539425 -0.282738,-0.561764 -0.416074,-1.838919 -0.349884,-3.351334 0.07925,-1.810873 0.276066,-2.64947 0.971316,-4.138661 1.391291,-2.980076 3.729424,-5.016349 6.992172,-6.089464 0.977214,-0.321405 1.223039,-0.350184 3.0625,-0.358526 1.734062,-0.0079 2.132279,0.02923 2.99481,0.278947 4.662611,1.349916 7.829809,5.242602 8.257902,10.149483 0.166409,1.907403 -0.445762,4.442656 -1.513021,6.266049 -1.090364,1.862864 -3.206846,3.780047 -5.051817,4.576112 l -0.7377,0.318302 0.558793,0.783078 c 1.670159,2.340519 2.788393,6.201052 3.188802,11.008865 0.16762,2.012658 0.08939,6.752695 -0.129729,7.860094 -0.384878,1.945141 -0.942328,3.079074 -1.854806,3.77293 -0.986947,0.750483 -1.450749,0.826384 -5.275734,0.863378 -1.890625,0.01828 -3.713446,-0.01556 -4.050713,-0.0752 z M 53.094668,28.672968 c 0.38511,-0.24921 0.680976,-0.974638 0.581754,-1.426391 -0.373668,-1.701298 -2.845036,-1.45901 -2.845036,0.278923 0,1.162592 1.25593,1.79934 2.263282,1.147468 z"
     id="path3905"
     inkscape:connector-curvature="0"
     transform="matrix(1.35,0,0,1.35,-11.25,-9)" /><path
     style="fill:#e8c382;fill-opacity:0;stroke:#a000a0;stroke-width:0.00075;stroke-miterlimit:4;stroke-opacity:0;stroke-dasharray:none"
     d="m 54.939764,62.877261 c -0.337266,-0.05965 -0.973208,-0.285674 -1.413204,-0.502282 -0.98351,-0.484182 -1.51849,-1.167118 -1.9555,-2.496323 -0.516435,-1.570781 -0.637685,-2.699836 -0.630921,-5.875 0.0096,-4.524422 0.382977,-7.295692 1.491159,-11.068755 0.07415,-0.252465 0.04048,-0.255929 -2.276528,-0.23413 -2.049148,0.01928 -2.440265,0.05575 -3.039293,0.283425 -1.274022,0.484219 -3.158515,0.271425 -3.929796,-0.443747 -0.265477,-0.246164 -0.32612,-0.403392 -0.295819,-0.766967 0.0342,-0.410401 0.102244,-0.489391 0.663115,-0.769826 0.543306,-0.271652 0.788388,-0.312141 1.875,-0.309755 1.397917,0.0031 1.953548,0.200484 2.594714,0.921896 l 0.344715,0.387859 1.592785,-0.0011 c 0.876032,-6.25e-4 1.890839,-0.03688 2.255126,-0.08063 l 0.662339,-0.07955 0.451098,-0.9123 c 0.248103,-0.501765 0.670785,-1.202558 0.939293,-1.557318 0.268507,-0.35476 0.470586,-0.660722 0.449063,-0.679914 -0.02152,-0.01915 -0.461008,-0.24399 -0.976633,-0.499596 -1.20445,-0.597073 -2.898136,-1.863008 -2.554532,-1.90937 0.837441,-0.112998 1.697113,-0.350503 2.21527,-0.612022 1.924166,-0.971143 3.142512,-3.245678 2.760813,-5.154172 -0.123021,-0.615101 -0.501383,-0.624896 -1.474203,-0.03816 -1.117731,0.674136 -2.566819,1.055996 -4.072348,1.073137 -1.31389,0.01496 -2.585659,-0.235542 -2.738604,-0.539425 -0.282738,-0.561764 -0.416074,-1.838919 -0.349884,-3.351334 0.07925,-1.810873 0.276066,-2.64947 0.971316,-4.138661 1.391291,-2.980076 3.729424,-5.016349 6.992172,-6.089464 0.977214,-0.321405 1.223039,-0.350184 3.0625,-0.358526 1.734062,-0.0079 2.132279,0.02923 2.99481,0.278947 4.662611,1.349916 7.829809,5.242602 8.257902,10.149483 0.166409,1.907403 -0.445762,4.442656 -1.513021,6.266049 -1.090364,1.862864 -3.206846,3.780047 -5.051817,4.576112 l -0.7377,0.318302 0.558793,0.783078 c 1.670159,2.340519 2.788393,6.201052 3.188802,11.008865 0.16762,2.012658 0.08939,6.752695 -0.129729,7.860094 -0.384878,1.945141 -0.942328,3.079074 -1.854806,3.77293 -0.986947,0.750483 -1.450749,0.826384 -5.275734,0.863378 -1.890625,0.01828 -3.713446,-0.01556 -4.050713,-0.0752 z M 53.094668,28.672968 c 0.38511,-0.24921 0.680976,-0.974638 0.581754,-1.426391 -0.373668,-1.701298 -2.845036,-1.45901 -2.845036,0.278923 0,1.162592 1.25593,1.79934 2.263282,1.147468 z"
     id="path3907"
     inkscape:connector-curvature="0"
     transform="matrix(1.35,0,0,1.35,-11.25,-9)" /><path
     style="fill:#e8c382;fill-opacity:0;stroke:#a000a0;stroke-width:0.00075;stroke-miterlimit:4;stroke-opacity:0;stroke-dasharray:none"
     d="m 20.990477,62.86759 c -2.673718,-0.46007 -3.78159,-2.387928 -3.980375,-6.926434 -0.308069,-7.033566 0.949606,-13.334711 3.309129,-16.579247 0.231685,-0.318585 0.421246,-0.609775 0.421246,-0.647087 0,-0.03731 -0.301768,-0.205993 -0.670596,-0.374848 -2.961748,-1.355933 -5.350548,-4.197269 -6.220418,-7.398818 -0.388666,-1.430481 -0.392926,-4.084297 -0.0088,-5.478571 1.192347,-4.327823 4.450939,-7.402817 8.772831,-8.278545 1.598802,-0.323958 3.801531,-0.197914 5.376977,0.307682 1.869876,0.600085 3.105944,1.364906 4.5625,2.823062 1.398863,1.400398 2.11155,2.516361 2.69731,4.223583 0.784475,2.286389 0.825864,4.896637 0.110266,6.954138 -0.438615,1.261117 -1.367582,1.702257 -3.557576,1.689391 -1.514255,-0.0089 -2.508929,-0.266079 -3.457879,-0.894064 -0.569192,-0.376672 -0.917121,-0.289627 -0.917121,0.229448 0,0.764735 2.566791,1.739721 4.5625,1.733047 0.309375,-10e-4 0.928125,-0.07912 1.375,-0.173515 0.446875,-0.0944 0.835044,-0.15037 0.862598,-0.124381 0.09415,0.08881 -1.392765,1.931528 -1.97201,2.443899 -0.819665,0.725034 -1.902557,1.442567 -2.837133,1.879909 -0.4419,0.20679 -0.803455,0.404772 -0.803455,0.439961 0,0.03519 0.158625,0.26895 0.3525,0.519469 0.193875,0.250517 0.473978,0.657145 0.62245,0.903616 l 0.26995,0.448127 1.7213,0.20508 c 2.964265,0.353169 3.31737,0.368773 3.712004,0.164034 0.321556,-0.166825 0.411762,-0.164312 0.87149,0.02427 0.788964,0.323642 2.264887,0.2868 2.84006,-0.07089 0.5832,-0.362682 0.930541,-0.355945 1.178749,0.02287 0.268688,0.410071 0.09432,0.714623 -0.664552,1.16071 -0.550012,0.323313 -0.687788,0.347672 -1.966451,0.347672 -1.255086,0 -1.433127,-0.02998 -2.04152,-0.34375 -0.445684,-0.229856 -0.859844,-0.344064 -1.25,-0.344699 -0.528389,-8.75e-4 -1.10529,-0.05705 -3.290804,-0.320516 l -0.707322,-0.08527 0.428175,1.139929 c 1.319897,3.513965 2.014701,9.098496 1.694479,13.619503 -0.288424,4.072062 -1.076893,5.736496 -3.093157,6.529557 -0.70307,0.27654 -0.910742,0.292473 -4.177351,0.320493 -1.890625,0.01622 -3.746875,-0.02375 -4.125,-0.08881 l 0,0 z M 31.574612,28.880363 c 0.08065,-9.38e-4 0.319711,-0.174784 0.53125,-0.386322 0.323666,-0.323667 0.384615,-0.480609 0.384615,-0.990385 0,-0.503658 -0.06195,-0.667714 -0.367487,-0.973257 -0.617114,-0.617114 -1.437723,-0.618179 -2.094779,-0.0027 -0.929329,0.870496 -0.08673,2.629851 1.149766,2.400717 0.1375,-0.02548 0.315985,-0.0471 0.396635,-0.04803 l 0,0 z"
     id="path3909"
     inkscape:connector-curvature="0"
     transform="matrix(1.35,0,0,1.35,-11.25,-9)" /><path
     style="fill:#e8c382;fill-opacity:0;stroke:#a000a0;stroke-width:0.00075;stroke-miterlimit:4;stroke-opacity:0;stroke-dasharray:none"
     d="m 20.990477,62.86759 c -2.673718,-0.46007 -3.78159,-2.387928 -3.980375,-6.926434 -0.308069,-7.033566 0.949606,-13.334711 3.309129,-16.579247 0.231685,-0.318585 0.421246,-0.609775 0.421246,-0.647087 0,-0.03731 -0.301768,-0.205993 -0.670596,-0.374848 -2.961748,-1.355933 -5.350548,-4.197269 -6.220418,-7.398818 -0.388666,-1.430481 -0.392926,-4.084297 -0.0088,-5.478571 1.192347,-4.327823 4.450939,-7.402817 8.772831,-8.278545 1.598802,-0.323958 3.801531,-0.197914 5.376977,0.307682 1.869876,0.600085 3.105944,1.364906 4.5625,2.823062 1.398863,1.400398 2.11155,2.516361 2.69731,4.223583 0.784475,2.286389 0.825864,4.896637 0.110266,6.954138 -0.438615,1.261117 -1.367582,1.702257 -3.557576,1.689391 -1.514255,-0.0089 -2.508929,-0.266079 -3.457879,-0.894064 -0.569192,-0.376672 -0.917121,-0.289627 -0.917121,0.229448 0,0.764735 2.566791,1.739721 4.5625,1.733047 0.309375,-10e-4 0.928125,-0.07912 1.375,-0.173515 0.446875,-0.0944 0.835044,-0.15037 0.862598,-0.124381 0.09415,0.08881 -1.392765,1.931528 -1.97201,2.443899 -0.819665,0.725034 -1.902557,1.442567 -2.837133,1.879909 -0.4419,0.20679 -0.803455,0.404772 -0.803455,0.439961 0,0.03519 0.158625,0.26895 0.3525,0.519469 0.193875,0.250517 0.473978,0.657145 0.62245,0.903616 l 0.26995,0.448127 1.7213,0.20508 c 2.964265,0.353169 3.31737,0.368773 3.712004,0.164034 0.321556,-0.166825 0.411762,-0.164312 0.87149,0.02427 0.788964,0.323642 2.264887,0.2868 2.84006,-0.07089 0.5832,-0.362682 0.930541,-0.355945 1.178749,0.02287 0.268688,0.410071 0.09432,0.714623 -0.664552,1.16071 -0.550012,0.323313 -0.687788,0.347672 -1.966451,0.347672 -1.255086,0 -1.433127,-0.02998 -2.04152,-0.34375 -0.445684,-0.229856 -0.859844,-0.344064 -1.25,-0.344699 -0.528389,-8.75e-4 -1.10529,-0.05705 -3.290804,-0.320516 l -0.707322,-0.08527 0.428175,1.139929 c 1.319897,3.513965 2.014701,9.098496 1.694479,13.619503 -0.288424,4.072062 -1.076893,5.736496 -3.093157,6.529557 -0.70307,0.27654 -0.910742,0.292473 -4.177351,0.320493 -1.890625,0.01622 -3.746875,-0.02375 -4.125,-0.08881 l 0,0 z M 31.574612,28.880363 c 0.08065,-9.38e-4 0.319711,-0.174784 0.53125,-0.386322 0.323666,-0.323667 0.384615,-0.480609 0.384615,-0.990385 0,-0.503658 -0.06195,-0.667714 -0.367487,-0.973257 -0.617114,-0.617114 -1.437723,-0.618179 -2.094779,-0.0027 -0.929329,0.870496 -0.08673,2.629851 1.149766,2.400717 0.1375,-0.02548 0.315985,-0.0471 0.396635,-0.04803 l 0,0 z"
     id="path3911"
     inkscape:connector-curvature="0"
     transform="matrix(1.35,0,0,1.35,-11.25,-9)" /><path
     style="color:#000000;fill:#e8c382;fill-opacity:0;fill-rule:nonzero;stroke:#a000a0;stroke-width:0.00009375;stroke-linecap:butt;stroke-linejoin:miter;stroke-miterlimit:4;stroke-opacity:0;stroke-dasharray:none;stroke-dashoffset:0;marker:none;visibility:visible;display:inline;overflow:visible;enable-background:accumulate"
     d="m 54.939764,62.877261 c -0.337266,-0.05965 -0.973208,-0.285674 -1.413204,-0.502282 -0.98351,-0.484182 -1.51849,-1.167118 -1.9555,-2.496323 -0.516435,-1.570781 -0.637685,-2.699836 -0.630921,-5.875 0.0096,-4.524422 0.382977,-7.295692 1.491159,-11.068755 0.07415,-0.252465 0.04048,-0.255929 -2.276528,-0.23413 -2.049148,0.01928 -2.440265,0.05575 -3.039293,0.283425 -1.274022,0.484219 -3.158515,0.271425 -3.929796,-0.443747 -0.265477,-0.246164 -0.32612,-0.403392 -0.295819,-0.766967 0.0342,-0.410401 0.102244,-0.489391 0.663115,-0.769826 0.543306,-0.271652 0.788388,-0.312141 1.875,-0.309755 1.397917,0.0031 1.953548,0.200484 2.594714,0.921896 l 0.344715,0.387859 1.592785,-0.0011 c 0.876032,-6.25e-4 1.890839,-0.03688 2.255126,-0.08063 l 0.662339,-0.07955 0.451098,-0.9123 c 0.248103,-0.501765 0.670785,-1.202558 0.939293,-1.557318 0.268507,-0.35476 0.470586,-0.660722 0.449063,-0.679914 -0.02152,-0.01915 -0.461008,-0.24399 -0.976633,-0.499596 -1.20445,-0.597073 -2.898136,-1.863008 -2.554532,-1.90937 0.837441,-0.112998 1.697113,-0.350503 2.21527,-0.612022 1.924166,-0.971143 3.142512,-3.245678 2.760813,-5.154172 -0.123021,-0.615101 -0.501383,-0.624896 -1.474203,-0.03816 -1.117731,0.674136 -2.566819,1.055996 -4.072348,1.073137 -1.31389,0.01496 -2.585659,-0.235542 -2.738604,-0.539425 -0.282738,-0.561764 -0.416074,-1.838919 -0.349884,-3.351334 0.07925,-1.810873 0.276066,-2.64947 0.971316,-4.138661 1.391291,-2.980076 3.729424,-5.016349 6.992172,-6.089464 0.977214,-0.321405 1.223039,-0.350184 3.0625,-0.358526 1.734062,-0.0079 2.132279,0.02923 2.99481,0.278947 4.662611,1.349916 7.829809,5.242602 8.257902,10.149483 0.166409,1.907403 -0.445762,4.442656 -1.513021,6.266049 -1.090364,1.862864 -3.206846,3.780047 -5.051817,4.576112 l -0.7377,0.318302 0.558793,0.783078 c 1.670159,2.340519 2.788393,6.201052 3.188802,11.008865 0.16762,2.012658 0.08939,6.752695 -0.129729,7.860094 -0.384878,1.945141 -0.942328,3.079074 -1.854806,3.77293 -0.986947,0.750483 -1.450749,0.826384 -5.275734,0.863378 -1.890625,0.01828 -3.713446,-0.01556 -4.050713,-0.0752 z M 53.094668,28.672968 c 0.38511,-0.24921 0.680976,-0.974638 0.581754,-1.426391 -0.373668,-1.701298 -2.845036,-1.45901 -2.845036,0.278923 0,1.162592 1.25593,1.79934 2.263282,1.147468 z"
     id="path3913"
     inkscape:connector-curvature="0"
     transform="matrix(1.35,0,0,1.35,-11.25,-9)" /><path
     style="color:#000000;fill:#e8c382;fill-opacity:0;fill-rule:nonzero;stroke:#a000a0;stroke-width:0.00009375000000000;stroke-linecap:butt;stroke-linejoin:miter;stroke-miterlimit:4;stroke-opacity:0;stroke-dasharray:none;stroke-dashoffset:0;marker:none;visibility:visible;display:inline;overflow:visible;enable-background:accumulate"
     d="m 54.939764,62.877261 c -0.337266,-0.05965 -0.973208,-0.285674 -1.413204,-0.502282 -0.98351,-0.484182 -1.51849,-1.167118 -1.9555,-2.496323 -0.516435,-1.570781 -0.637685,-2.699836 -0.630921,-5.875 0.0096,-4.524422 0.382977,-7.295692 1.491159,-11.068755 0.07415,-0.252465 0.04048,-0.255929 -2.276528,-0.23413 -2.049148,0.01928 -2.440265,0.05575 -3.039293,0.283425 -1.274022,0.484219 -3.158515,0.271425 -3.929796,-0.443747 -0.265477,-0.246164 -0.32612,-0.403392 -0.295819,-0.766967 0.0342,-0.410401 0.102244,-0.489391 0.663115,-0.769826 0.543306,-0.271652 0.788388,-0.312141 1.875,-0.309755 1.397917,0.0031 1.953548,0.200484 2.594714,0.921896 l 0.344715,0.387859 1.592785,-0.0011 c 0.876032,-6.25e-4 1.890839,-0.03688 2.255126,-0.08063 l 0.662339,-0.07955 0.451098,-0.9123 c 0.248103,-0.501765 0.670785,-1.202558 0.939293,-1.557318 0.268507,-0.35476 0.470586,-0.660722 0.449063,-0.679914 -0.02152,-0.01915 -0.461008,-0.24399 -0.976633,-0.499596 -1.20445,-0.597073 -2.898136,-1.863008 -2.554532,-1.90937 0.837441,-0.112998 1.697113,-0.350503 2.21527,-0.612022 1.924166,-0.971143 3.142512,-3.245678 2.760813,-5.154172 -0.123021,-0.615101 -0.501383,-0.624896 -1.474203,-0.03816 -1.117731,0.674136 -2.566819,1.055996 -4.072348,1.073137 -1.31389,0.01496 -2.585659,-0.235542 -2.738604,-0.539425 -0.282738,-0.561764 -0.416074,-1.838919 -0.349884,-3.351334 0.07925,-1.810873 0.276066,-2.64947 0.971316,-4.138661 1.391291,-2.980076 3.729424,-5.016349 6.992172,-6.089464 0.977214,-0.321405 1.223039,-0.350184 3.0625,-0.358526 1.734062,-0.0079 2.132279,0.02923 2.99481,0.278947 4.662611,1.349916 7.829809,5.242602 8.257902,10.149483 0.166409,1.907403 -0.445762,4.442656 -1.513021,6.266049 -1.090364,1.862864 -3.206846,3.780047 -5.051817,4.576112 l -0.7377,0.318302 0.558793,0.783078 c 1.670159,2.340519 2.788393,6.201052 3.188802,11.008865 0.16762,2.012658 0.08939,6.752695 -0.129729,7.860094 -0.384878,1.945141 -0.942328,3.079074 -1.854806,3.77293 -0.986947,0.750483 -1.450749,0.826384 -5.275734,0.863378 -1.890625,0.01828 -3.713446,-0.01556 -4.050713,-0.0752 z M 53.094668,28.672968 c 0.38511,-0.24921 0.680976,-0.974638 0.581754,-1.426391 -0.373668,-1.701298 -2.845036,-1.45901 -2.845036,0.278923 0,1.162592 1.25593,1.79934 2.263282,1.147468 z"
     id="path3915"
     inkscape:connector-curvature="0"
     transform="matrix(1.35,0,0,1.35,-11.25,-9)" /></svg>